<svg xmlns="http://www.w3.org/2000/svg" xml:space="preserve" width="2000" height="1500" data-id="lg_xMXhkDGji3C2Jv1V3E" data-version="1" viewBox="0 0 2000 1500"><path fill="#fff" stroke="transparent" d="M0 0h2000v1500H0z"/><g data-padding="20"><g transform="translate(-978.242 -724.474)scale(1.91228)"><rect width="598.802" height="494.652" x="-695.674" y="426.402" fill="#f97035" rx="237" ry="237" transform="matrix(0 -.94 .94 0 401.19 398.56)"/><path fill="none" stroke="#eef47d" stroke-width="4.21" d="M822.908 772.476c.046 116.192 94.224 210.37 210.416 210.416 116.208 0 210.416-94.207 210.416-210.416 0-116.208-94.208-210.416-210.416-210.416-116.209 0-210.416 94.208-210.416 210.416m210.416 176.694a176.8 176.8 0 0 1-101.04-31.996c16.63-.21 37.721-6.357 62.097-26.69 28.334-23.577 40.164-48.416 63.74-87.359s34.227-33.049 44.878-23.576 49.51 31.828 70.812-3.536c16.335-27.28 17.682-31.912 31.828-27.155 1.053.337 1.768.716 2.737 1.053q1.515 11.072 1.641 22.523c-.025 97.588-79.105 176.706-176.693 176.778m157.917-255.42c-11.788-8-27.49-16.546-48.12-23.956-46.016-16.545-106.219-24.796-99.146 7.073a1314 1314 0 0 1 15.324 79.106c2.358 16.503-14.187 36.585-25.975 58.94-11.788 22.44-31.87 35.448-44.837 17.766s31.87-53.13 17.682-64.96c-14.145-11.788-27.154-3.536-57.803-18.86s-25.05-16.799-50.73-28.334a40 40 0 0 0-32.839-1.053c23.18-73.578 91.383-123.635 168.527-123.69a176.82 176.82 0 0 1 157.917 97.967"/><rect width="55.53" height="100" x="645.963" y="482.137" fill="#f97035" rx="0" ry="0" transform="matrix(.94 0 0 .7 203.61 399.81)"/><rect width="55.53" height="100" x="645.963" y="482.137" fill="#f97035" rx="0" ry="0" transform="matrix(.94 0 0 .7 596.66 399.81)"/><path fill="#eef47d" fill-rule="evenodd" d="m1026.901 592.185-56.24 18.64a29.07 29.07 0 0 1-6.764-18.64 28.95 28.95 0 0 1 6.441-18.259Zm1.197 4.655-34.56 47.975a29.07 29.07 0 0 1-21.28-29.716Zm-55.879-26.866v-1.425c0-13.414 9.063-24.7 21.413-28.063l34.428 47.348Zm59.812 14.554-34.618-47.595a29.07 29.07 0 0 1 34.333-10.469Zm.038 15.77.59 58.368c-3.42 1.425-7.24 1.881-11.21 1.881-9.634 0-18.507-5.738-23.808-12.977Zm4.826-15.77-.57-58.52c3.952-1.976 8.493-1.5 13.205-1.5 9.557 0 16.853 5.794 22.154 12.92Zm-.019 15.79 35.017 47.062c-5.32 6.878-12.787 12.958-22.154 12.958-4.427 0-8.892 0-12.635-1.767Z"/><path fill="#eef47d" fill-rule="evenodd" d="M1034.54 511.131a81.054 81.054 0 1 0 0 162.09c44.275-.679 79.812-36.766 79.812-81.045 0-44.282-35.537-80.367-79.813-81.045m0 157.928c-42.46 0-76.883-34.422-76.883-76.883 0-42.462 34.422-76.884 76.883-76.884s76.884 34.422 76.884 76.884c0 42.46-34.423 76.883-76.884 76.883"/><path fill="#eef47d" fill-rule="evenodd" d="M1096.821 614.871q.076.95.076 1.9c0 13.224-8.816 24.377-20.862 27.93l-34.998-47.918Zm-56.03-27.322 34.655-47.12.038.076a29.07 29.07 0 0 1 21.375 29.298c-11.324 3.61-47.975 15.276-56.069 17.746m64.41 4.617c0 7.03-2.508 13.49-6.669 18.544l-55.765-18.62 55.955-18.24a28.88 28.88 0 0 1 6.48 18.316"/><path fill="#eef47d" fill-rule="evenodd" d="M970.32 573.926a29.07 29.07 0 0 0-6.423 18.24c0 7.106 2.527 13.604 6.764 18.658l56.24-18.639Zm1.937 41.192q-.057.817-.057 1.672c0 13.376 9.044 24.662 21.337 28.044l34.542-47.994Zm59.793-14.8-34.409 47.271c5.282 7.22 14.174 12.977 23.826 12.977 3.952 0 7.771-.456 11.21-1.9Zm4.826 0 .21 58.253c3.761 1.767 8.226 1.767 12.634 1.767 9.386 0 16.853-6.08 22.173-12.958Zm59.945 14.553-55.784-18.088 34.998 47.918a29.07 29.07 0 0 0 20.786-29.83m1.9-41.002-55.955 18.24 55.765 18.62a29.07 29.07 0 0 0 6.67-18.544 29 29 0 0 0-6.48-18.316m-23.237-33.364-.019-.076-34.675 47.12c8.094-2.47 44.745-14.136 56.07-17.746l.037-1.235c0-13.395-9.063-24.7-21.413-28.063m-25.973-15.998c-4.712 0-9.253-.494-13.186 1.52l.551 58.52 34.79-47.12c-5.302-7.125-12.598-12.92-22.155-12.92m-17.765 1.957a29.07 29.07 0 0 0-34.333 10.45l34.618 47.614Zm-38.114 14.041a29.07 29.07 0 0 0-21.413 29.488l55.822 17.86Z"/><rect width="345" height="164.822" x="460.804" y="290.085" fill="none" rx="0" ry="0" transform="translate(399.56 431.29)"/><path fill="#eef47d" d="M939.144 767.266q-3.01 0-5.68-.71-2.68-.71-4.16-1.28v-2.39q.87.41 2.35 1.04 1.48.64 3.26 1.1 1.79.46 3.47.46 3.36 0 5.43-1.76t2.07-4.97q0-1.99-1.18-3.42-1.17-1.43-3.03-2.6t-3.95-2.27q-2.1-1.1-3.96-2.4t-3.03-3.06-1.17-4.15q0-1.99 1.07-3.96 1.07-1.96 3.41-3.29 2.35-1.32 6.17-1.32 2.1 0 4.54.51 2.45.51 4.24 1.07l-.51 3.47q-2.96-1.28-5.87-2.12t-5.91-.84q-1.48.71-2.07 1.86t-.59 2.52q0 2.04 1.23 3.6 1.22 1.56 3.18 2.86 1.97 1.3 4.14 2.52 2.16 1.22 4.13 2.65 1.96 1.43 3.18 3.22 1.23 1.78 1.23 4.18 0 2.65-1.33 4.82-1.32 2.16-3.98 3.41-2.65 1.25-6.68 1.25m22.54-.62h-4.29v-34.83h4.13v15.04q1.89-1.78 3.83-2.78 1.94-.99 4.18-.99 1.22 0 2.63.61 1.4.61 2.39 2.27 1 1.66 1 4.82v15.86h-4.29v-15.35q0-2.4-.84-3.7t-3.13-1.3q-1.13 0-2.63.64-1.51.64-2.98 2.07Zm38.26-1.26-2.66 1.93-4.13-3.72q-1.83 1.68-3.59 2.68-1.76.99-3.85.99t-3.78-1.37q-1.68-1.38-1.68-3.93 0-1.99 1.33-3.34 1.32-1.35 3.36-2.17 2.04-.81 4.23-1.22 2.2-.41 3.93-.51v-4.8q0-4.23-4.89-4.23-1.28 0-2.94.28-1.65.28-3.69.94l-.46-1.27q.56-.46 1.88-1.07 1.33-.61 3.06-1.1 1.74-.48 3.52-.48 2.91 0 4.49.84t2.24 2.14q.67 1.3.82 2.7.15 1.41.15 2.53v8.67q0 1.73.49 2.85.48 1.13 1.12 1.74t1.05.92m-12.3-.46q1.23-.26 2.48-1t2.11-1.53q.87-.79.87-1.14v-5.26q-3.82.26-6.09 1.66t-2.27 2.98.84 2.73 2.06 1.56m20.51 1.72h-4.29v-23.05h2.96l1.17 4.28q.67-1.12 1.87-2.24 1.19-1.12 2.75-1.96 1.55-.85 3.19-1.1l.51 3.52q-1.33 0-2.86.56t-2.93 1.43q-1.4.86-2.37 1.78Zm20.44.62q-3.16 0-5.69-1.32-2.52-1.33-3.95-3.88t-1.43-6.22q0-4.23 1.63-7.09t4.29-4.31q2.65-1.45 5.66-1.45 2.39 0 4.36 1.25 1.96 1.25 3.16 3.72t1.2 6.15h-16.27q0 3.97 1.25 6.24t3.26 3.19q2.02.92 4.21.92 1.99 0 3.52-.41t2.8-.97v1.79q-1.58.91-3.62 1.65t-4.38.74m-6.84-14.68h11.94q-.16-2.3-1-3.73t-1.99-2.17q-1.14-.73-2.29-1.02-1.15-.28-1.91-.28-1.74.82-3.04 2.73-1.3 1.92-1.71 4.47m47.38 14.07h-4.94v-12.54l-11.53-21.22h5.56l9.43 19.38 8.83-19.38h2.55l-9.9 20.96Zm21.98.61q-2.85 0-5.2-1.32-2.34-1.33-3.72-3.9-1.38-2.58-1.38-6.25 0-3.62 1.15-6.07t3.01-3.93 4-2.14 4.13-.66q2.91 0 5.26 1.32 2.34 1.33 3.72 3.88t1.38 6.27q0 3.62-1.18 6.07-1.17 2.45-3.03 3.93t-4.01 2.14q-2.14.66-4.13.66m.97-1.73q1.79 0 3.06-.97 1.28-.97 2.07-2.52.79-1.56 1.17-3.34.38-1.79.38-3.47 0-2.81-.69-5.13-.68-2.32-2.29-3.75-1.61-1.42-4.41-1.42-3.06 1.17-4.49 4.08-1.43 2.9-1.43 6.22 0 2.7.67 5.07.66 2.37 2.11 3.8 1.46 1.43 3.85 1.43m20.86 1.73q-1.17 0-2.57-.58-1.41-.59-2.43-2.25-1.02-1.65-1.02-4.77v-16.06h4.34v16.32q0 2.35.84 3.65t3.09 1.3q1.17 0 2.49-.92 1.33-.92 2.55-2.35v-18h4.34v16.22q0 1.73.48 2.83.49 1.09 1.13 1.73.63.64 1.04 1l-2.65 1.88-4.13-3.72q-1.89 1.79-3.57 2.75-1.68.97-3.93.97m22.8-.62h-4.29v-23.05h2.96l1.18 4.28q.66-1.12 1.86-2.24t2.75-1.96q1.56-.85 3.19-1.1l.51 3.52q-1.33 0-2.86.56t-2.93 1.43q-1.4.86-2.37 1.78Zm-146.77 54.21q-3.01 0-5.68-.71-2.68-.72-4.16-1.28v-2.4q.87.41 2.35 1.05t3.26 1.1q1.79.45 3.47.45 3.36 0 5.43-1.76 2.07-1.75 2.07-4.97 0-1.99-1.18-3.41-1.17-1.43-3.03-2.61-1.86-1.17-3.95-2.27-2.1-1.09-3.96-2.39t-3.03-3.06-1.17-4.16q0-1.99 1.07-3.95t3.41-3.29q2.35-1.33 6.17-1.33 2.1 0 4.54.51 2.45.51 4.24 1.07l-.51 3.47q-2.96-1.27-5.87-2.11-2.91-.85-5.91-.85-1.48.72-2.07 1.87-.59 1.14-.59 2.52 0 2.04 1.23 3.6 1.22 1.55 3.18 2.85 1.97 1.3 4.14 2.53 2.16 1.22 4.13 2.65 1.96 1.43 3.18 3.21 1.23 1.79 1.23 4.18 0 2.66-1.33 4.82-1.32 2.17-3.98 3.42-2.65 1.25-6.68 1.25m23.97.01q-2.09 0-3.52-1.22-1.42-1.23-1.42-4.14v-16.47l-4.13-.81v-1.02h4.13v-1.84l4.28-3.11v4.95h6.07v1.83h-6.07v16.73q0 1.43.59 2.24.58.82 2.22.82.71 0 1.58-.23.86-.23 1.68-.54v1.43q-1.12.51-2.53.95-1.4.43-2.88.43m18.26 0q-2.85 0-5.2-1.33-2.35-1.32-3.72-3.9-1.38-2.57-1.38-6.25 0-3.62 1.15-6.06 1.14-2.45 3.01-3.93 1.86-1.48 4-2.14 2.14-.67 4.13-.67 2.91 0 5.25 1.33 2.35 1.33 3.73 3.88 1.37 2.55 1.37 6.27 0 3.62-1.17 6.07t-3.03 3.92q-1.87 1.48-4.01 2.15-2.14.66-4.13.66m.97-1.73q1.79 0 3.06-.97 1.28-.97 2.07-2.53.79-1.55 1.17-3.34.38-1.78.38-3.47 0-2.8-.69-5.12t-2.29-3.75q-1.61-1.43-4.41-1.43-3.06 1.17-4.49 4.08t-1.43 6.22q0 2.71.66 5.08.67 2.37 2.12 3.8t3.85 1.43m19.79 1.11h-4.29v-23.05h2.96l1.18 4.28q.66-1.12 1.86-2.24 1.2-1.13 2.75-1.97 1.56-.84 3.19-1.09l.51 3.51q-1.33 0-2.86.57-1.53.56-2.93 1.42-1.4.87-2.37 1.79Zm8.31 11.22.72-3.73q2.85-.1 4.87-1.27 2.01-1.17 3.39-2.93 1.37-1.76 2.24-3.55l-10.35-22.79h4.54l7.8 17.28 6.02-17.28h1.94l-8.72 23.81q-1.13 3.06-3.01 5.41-1.89 2.34-4.31 3.67-2.43 1.33-5.13 1.38m24.84-3.98-.61-.97q1.48-1.17 2.44-2.8.97-1.64.97-3.27-1.07 0-2.11-.71-1.05-.72-1.05-2.09.72-1.07 2.3-1.92 1.58-.84 3.06-.99.4 1.12.56 2.14.15 1.02.15 1.94 0 3.16-1.68 5.25-1.69 2.09-4.03 3.42m-212.42 46.36h-4.69v-33.76h4.69Zm12.38 0h-4.33v-16.01q0-1.79-.49-2.88-.48-1.1-1.09-1.74-.61-.63-1.02-.94l2.6-1.94 4.18 3.72q1.89-1.78 3.54-2.83 1.66-1.04 3.91-1.04 1.17 0 2.57.61t2.42 2.27 1.02 4.82v15.96h-4.33v-15.45q0-2.4-.84-3.7t-3.09-1.3q-2.19 0-5.05 2.86Zm25.04.61q-2.24 0-4.2-.66-1.97-.66-2.94-1.17v-1.94q.62.31 1.71.71 1.1.41 2.4.72 1.3.3 2.47.3 2.71 0 3.88-1.22t1.17-2.5q0-1.53-1.12-2.6t-2.78-1.96q-1.66-.9-3.34-1.92t-2.8-2.42q-1.13-1.4-1.13-3.49 0-1.38.69-2.78t2.25-2.37q1.55-.97 4.2-.97 2.71 0 4.47.48 1.76.49 2.62.84l-.51 3.37q-2.04-1.12-3.87-1.73-1.84-.62-3.11-.82-1.38 0-2.2 1.02-.81 1.02-.81 2.14 0 1.48 1.17 2.53 1.17 1.04 2.91 1.96 1.73.92 3.44 1.94t2.88 2.4q1.17 1.37 1.17 3.46 0 2.76-2.21 4.72-2.22 1.96-6.41 1.96m17.96 10.2h-4.34v-26.97q0-1.79-.48-2.89-.49-1.09-1.1-1.73t-1.07-.94l2.65-1.94 4.34 3.87q1.88-1.78 3.54-2.83 1.66-1.04 3.9-1.04 1.18 0 2.63.53 1.45.54 2.85 1.89 1.41 1.35 2.3 3.8t.89 6.27q0 1.89-.58 3.98-.59 2.09-1.76 3.93-1.18 1.83-2.91 2.98t-4.03 1.15q-1.48 0-3.19-.56t-3.64-1.84Zm5.45-12.39q2.86-.05 4.44-2.55t1.58-6.42q0-4.39-1.32-7.25-1.33-2.85-3.22-3.46-1.48.15-2.75.81-1.28.66-2.22 1.46-.94.79-1.45 1.45t-.51.87v13.66q3.01 1.43 5.45 1.43m19.33 1.58h-4.23v-23.05h4.23Zm-2.14-27.59q-1.12 0-1.86-.81-.74-.82-.74-1.84 0-1.12.74-1.89.74-.76 1.86-.76 1.07 0 1.86.76.79.77.79 1.89 0 1.02-.79 1.84-.79.81-1.86.81m12.9 27.59h-4.28v-23.05h2.96l1.17 4.28q.66-1.12 1.86-2.24t2.76-1.96q1.55-.84 3.18-1.1l.51 3.52q-1.32 0-2.85.56t-2.93 1.43q-1.41.87-2.38 1.78Zm20.45.61q-3.16 0-5.68-1.32-2.53-1.33-3.95-3.88-1.43-2.55-1.43-6.22 0-4.23 1.63-7.09 1.63-2.85 4.28-4.31 2.66-1.45 5.66-1.45 2.4 0 4.37 1.25 1.96 1.25 3.16 3.72t1.2 6.15h-16.27q0 3.97 1.25 6.24t3.26 3.19 4.21.92q1.99 0 3.52-.41t2.8-.97v1.79q-1.58.92-3.62 1.66-2.04.73-4.39.73m-6.83-14.68h11.93q-.15-2.3-.99-3.73-.84-1.42-1.99-2.16t-2.29-1.02q-1.15-.28-1.92-.28-1.73.81-3.03 2.72-1.3 1.92-1.71 4.47m39.47 14.68q-2.09 0-3.51-1.22-1.43-1.22-1.43-4.13v-16.47l-4.13-.82v-1.02h4.13v-1.84l4.28-3.11v4.95h6.07v1.84h-6.07v16.72q0 1.43.59 2.25.58.81 2.22.81.71 0 1.58-.22.86-.23 1.68-.54v1.43q-1.12.51-2.52.94-1.41.43-2.89.43m14.74-.62h-4.28v-34.83h4.13v15.04q1.89-1.78 3.83-2.77 1.93-1 4.18-1 1.22 0 2.62.61 1.41.61 2.4 2.27 1 1.66 1 4.82v15.86h-4.29v-15.35q0-2.4-.84-3.7t-3.14-1.3q-1.12 0-2.62.64-1.51.64-2.99 2.07Zm29.28.62q-3.16 0-5.69-1.32-2.52-1.33-3.95-3.88t-1.43-6.22q0-4.23 1.63-7.09 1.63-2.85 4.29-4.31 2.65-1.45 5.66-1.45 2.39 0 4.36 1.25 1.96 1.25 3.16 3.72t1.2 6.15h-16.27q0 3.97 1.25 6.24t3.26 3.19q2.02.92 4.21.92 1.99 0 3.52-.41t2.8-.97v1.79q-1.58.92-3.62 1.66-2.04.73-4.38.73m-6.84-14.68h11.94q-.16-2.3-1-3.73-.84-1.42-1.99-2.16-1.14-.74-2.29-1.02t-1.91-.28q-1.74.81-3.04 2.72-1.3 1.92-1.71 4.47m44.12 14.83h-.82l-12.9-34.53h5.56l8.97 27.64 5.72-17.03-3.98-10.61h5.56l8.97 27.64 9.29-27.64h2.55l-12.65 34.53h-.82l-7.8-20.91Zm40.49-.15q-2.85 0-5.2-1.32-2.35-1.33-3.72-3.9-1.38-2.58-1.38-6.25 0-3.62 1.15-6.07t3.01-3.93 4-2.14 4.13-.66q2.91 0 5.25 1.32 2.35 1.33 3.73 3.88 1.37 2.55 1.37 6.27 0 3.62-1.17 6.07t-3.03 3.93-4.01 2.14q-2.14.66-4.13.66m.97-1.73q1.79 0 3.06-.97 1.28-.97 2.07-2.52.79-1.56 1.17-3.34.38-1.79.38-3.47 0-2.81-.69-5.13-.68-2.32-2.29-3.75-1.61-1.42-4.41-1.42-3.06 1.17-4.49 4.08-1.43 2.9-1.43 6.22 0 2.7.66 5.07.67 2.37 2.12 3.8t3.85 1.43m19.79 1.12h-4.28v-23.05h2.95l1.18 4.28q.66-1.12 1.86-2.24t2.75-1.96q1.56-.84 3.19-1.1l.51 3.52q-1.33 0-2.86.56t-2.93 1.43-2.37 1.78Zm16.17-.01h-4.29v-34.83h4.29Zm27.42-1.21-2.6 1.89-4.18-3.73q-1.89 1.74-3.54 2.71-1.66.96-3.9.96-1.13 0-2.61-.48-1.47-.48-2.85-1.76-1.38-1.27-2.3-3.7-.91-2.42-.91-6.24 0-1.99.56-4.11t1.68-3.93 2.83-2.9q1.71-1.1 4-1.1 1.48 0 3.22.56 1.73.56 3.67 1.79v-13.57h4.33v28q0 1.73.49 2.85.48 1.13 1.09 1.76.62.64 1.02 1m-13.87-.46q1.99-.15 3.55-.87 1.55-.71 2.47-1.48.92-.76.92-1.12v-14.23q-1.38-.92-2.63-1.35t-2.32-.43q-2.04 0-3.49 1.3-1.46 1.3-2.25 3.52t-.79 4.97q0 4.33 1.38 6.78t3.16 2.91"/><rect width="44.598" height="48.59" x="611.005" y="348.201" fill="none" rx="0" ry="0" transform="translate(202.02 399.5)"/><path fill="#eef47d" d="M826.904 781.726h-9.61q0-1.55 3.11-3.31.71-.38 2.3-1.18 4.67-2.39 6.35-4.03 2.1-2.1 2.1-4.54 0-4.11-4.46-5.54-1.8-.59-3.94-.59-4.37 0-6.55 2.19-1.31 1.3-1.31 3.1 0 2.06 1.52 2.57.37.12.75.12 2.02 0 2.44-1.93.08-.46.12-1.47.17-2.23.89-2.86.62-.58 1.8-.58 2.9 0 3.57 3.06.17.8.17 1.64 0 4.33-3.32 6.89-.5.37-3.57 2.31-2.94 1.84-3.82 3.78-.63 1.38-.63 3.06v1.09h16.76l.04-7.64h-.93l-.71 2.02q-.55 1.51-1.68 1.76-.5.08-1.39.08m18.82-19.2q-5.34 0-8.15 4.12-2.06 3.06-2.06 7.47 0 6.81 4.12 9.96 2.48 1.84 5.88 1.84 5.29 0 8.02-4.15 2.01-3.07 2.01-7.48 0-7.35-4.45-10.29-2.31-1.47-5.37-1.47m-.09 22.26q-3.15 0-4.15-3.74-.68-2.43-.68-6.76 0-8.73 3.07-10.24.75-.38 1.72-.38 3.11 0 4.07 4.07.59 2.39.59 6.34 0 8.36-2.56 10.12-.88.59-2.06.59"/><rect width="42.221" height="48.59" x="612.193" y="348.201" fill="none" rx="0" ry="0" transform="translate(599.33 400.03)"/><path fill="#eef47d" d="M1224.914 782.256h-9.61q0-1.55 3.11-3.31.71-.38 2.3-1.18 4.67-2.39 6.35-4.03 2.1-2.1 2.1-4.54 0-4.11-4.46-5.54-1.8-.59-3.94-.59-4.37 0-6.55 2.19-1.31 1.3-1.31 3.1 0 2.06 1.52 2.57.37.12.75.12 2.02 0 2.44-1.93.08-.46.12-1.47.17-2.23.89-2.86.63-.58 1.8-.58 2.9 0 3.57 3.06.17.8.17 1.64 0 4.33-3.32 6.89-.5.37-3.57 2.31-2.94 1.84-3.82 3.78-.63 1.38-.63 3.06v1.09h16.76l.04-7.64h-.93l-.71 2.02q-.55 1.51-1.68 1.76-.5.08-1.39.08m13.99 6.6h13.1q0-1.01-.55-1.1-.21-.04-.46-.04h-2.69v-5.29h3.7v-1.26h-3.7v-8.69h-.92l-.55 1.76q-.46 1.56-1.68 1.81-.46.08-1.13.08h-.42v5l-9.49-.04q7.43-6.22 9.78-8.57 4.5-4.58 4.54-7.1 0-2.01-2.02-2.39-.33-.08-.75-.08-1.81 0-2.65 1.64-.08.25-1.22 3.52-2.09 6.09-7.18 10.92-1.13 1.05-2.39 2.06l.25 1.26 11.13.04v5.33h-4.7Z"/></g><path fill="transparent" stroke="transparent" stroke-width="1.998" d="M535.413 187.5h929.174v1125H535.413z"/></g></svg>